<svg width="180" height="177" viewBox="0 0 180 177" fill="none" xmlns="http://www.w3.org/2000/svg">
<path fill-rule="evenodd" clip-rule="evenodd" d="M90 176.571C139.706 176.571 180 137.045 180 88.2857C180 39.5269 139.706 0 90 0C40.2944 0 0 39.5269 0 88.2857C0 137.045 40.2944 176.571 90 176.571ZM90 161.857C131.421 161.857 165 128.918 165 88.2856C165 47.6532 131.421 14.7141 90 14.7141C48.5786 14.7141 15 47.6532 15 88.2856C15 128.918 48.5786 161.857 90 161.857Z" fill="white"/>
<path d="M139.117 117.405C136.617 117.405 134.617 113.905 134.617 113.905C134.617 113.905 131.117 110.905 126.117 115.405C120.917 126.205 135.95 127.572 144.117 126.905C147.283 125.238 153.917 116.205 155.117 93.4049C156.617 64.9049 136.617 55.9048 141.117 70.9051C149.117 83.4048 141.617 117.405 139.117 117.405Z" fill="white"/>
<path d="M46.1973 117.405C48.6973 117.405 50.6973 113.905 50.6973 113.905C50.6973 113.905 54.1973 110.905 59.1973 115.405C64.3973 126.205 49.3639 127.572 41.1973 126.905C38.0306 125.238 31.3973 116.205 30.1973 93.4049C28.6973 64.9049 48.6973 55.9048 44.1973 70.9051C36.1973 83.4048 43.6973 117.405 46.1973 117.405Z" fill="white"/>
<path d="M49.5893 65.9999C51.0024 68.0622 54.9129 68.9999 54.9129 68.9999C54.9129 68.9999 55.7988 68.832 54.9129 75.5003C48.9429 85.8945 40.5 71.9999 32.1166 77.9046C31.7016 74.3503 36.7828 61.1221 54.9129 47.2447C77.5754 29.898 96.3047 41.3092 81.387 46.0758C66.5537 46.5418 48.1762 63.9375 49.5893 65.9999Z" fill="white"/>
<path d="M95.9996 41.4796C90.6068 44.5415 98.5001 47.4997 92.4998 50.5002C82.5001 55.5006 80.7761 41.5085 75.9998 45.4051C66.2968 48.1886 64.1333 49.2297 66.7629 41.4796C68.8722 38.7664 83.7334 32.4999 95.9994 32.5C108.383 32.5001 117.64 33.9355 115.5 41.4791C113.422 48.8054 101.392 38.4177 95.9996 41.4796Z" fill="white"/>
<path fill-rule="evenodd" clip-rule="evenodd" d="M81.7116 101.447C86.9089 105.808 92.9424 110.871 105.663 94.6749C118.766 77.992 136.163 49.1749 132.663 46.1749C129.863 43.7749 96.4962 66.6748 80.1629 78.1748C70.5002 84.978 74.5628 95.7751 80.1628 100.175C80.6746 100.577 81.1889 101.009 81.7116 101.447ZM109.163 70.1748C105.497 78.3415 96.8632 94.6749 91.6632 94.6749C88.8841 94.3998 83.9933 92.3146 86.6632 86.1748C89.4632 83.3748 102.83 74.3415 109.163 70.1748Z" fill="white"/>
</svg>
