<svg width="210" height="206" viewBox="0 0 210 206" fill="none" xmlns="http://www.w3.org/2000/svg">
<path fill-rule="evenodd" clip-rule="evenodd" d="M110.839 85.4321C108.951 85.8047 106.998 86 105 86C103.595 86 102.212 85.9033 100.859 85.7163C97.5917 86.2388 94.2035 87.1719 90.5004 88.5C81.0775 91.8794 71.5091 102.473 67.4515 106.965C66.3915 108.139 65.7074 108.896 65.5004 109C64.5004 109.5 59.0004 111 58.5004 103.5C57.9999 96 73.1561 85.0723 86.5004 80C86.6107 79.958 86.7215 79.9165 86.8334 79.876C79.6415 74.3955 74.9999 65.7397 74.9999 56C74.9999 39.4316 88.4315 26 105 26C121.568 26 135 39.4316 135 56C135 65.5391 130.548 74.0386 123.608 79.5332C125.125 79.8086 126 80 126 80C126 80 154 97 154.5 103.5C155 110 148 109.5 147 109C146.788 108.894 146.103 108.103 145.045 106.88C141.126 102.352 132.089 91.9092 123 88.5C118.618 86.8564 114.673 85.8423 110.839 85.4321ZM125 56C125 67.0459 116.046 76 105 76C93.954 76 84.9999 67.0459 84.9999 56C84.9999 44.9541 93.954 36 105 36C116.046 36 125 44.9541 125 56Z" fill="#4E4E4E"/>
<path fill-rule="evenodd" clip-rule="evenodd" d="M105 206C162.99 206 210 159.885 210 103C210 46.1147 162.99 0 105 0C47.0101 0 0 46.1147 0 103C0 159.885 47.0101 206 105 206ZM105 188.833C153.325 188.833 192.5 150.404 192.5 103C192.5 55.5956 153.325 17.1667 105 17.1667C56.6749 17.1667 17.4998 55.5956 17.4998 103C17.4998 150.404 56.6749 188.833 105 188.833Z" fill="#4E4E4E"/>
<path d="M60.0825 120.116C60.4307 119.313 61.5693 119.313 61.9175 120.116L67.2825 132.488C67.4274 132.822 67.7425 133.051 68.1051 133.086L81.5297 134.365C82.4008 134.448 82.7527 135.531 82.0967 136.11L71.9879 145.036C71.7148 145.277 71.5945 145.647 71.6737 146.003L74.6055 159.165C74.7957 160.02 73.8746 160.689 73.121 160.244L61.5084 153.388C61.1948 153.203 60.8052 153.203 60.4916 153.388L48.879 160.244C48.1254 160.689 47.2043 160.02 47.3945 159.165L50.3263 146.003C50.4055 145.647 50.2852 145.277 50.0121 145.036L39.9033 136.11C39.2473 135.531 39.5992 134.448 40.4703 134.365L53.8949 133.086C54.2575 133.051 54.5726 132.822 54.7175 132.488L60.0825 120.116Z" fill="#4E4E4E"/>
<path d="M104.083 101.116C104.431 100.313 105.569 100.313 105.917 101.116L111.282 113.488C111.427 113.822 111.743 114.051 112.105 114.086L125.53 115.365C126.401 115.448 126.753 116.531 126.097 117.11L115.988 126.036C115.715 126.277 115.594 126.647 115.674 127.003L118.605 140.165C118.796 141.02 117.875 141.689 117.121 141.244L105.508 134.388C105.195 134.203 104.805 134.203 104.492 134.388L92.879 141.244C92.1254 141.689 91.2043 141.02 91.3945 140.165L94.3263 127.003C94.4055 126.647 94.2852 126.277 94.0121 126.036L83.9033 117.11C83.2473 116.531 83.5992 115.448 84.4703 115.365L97.8949 114.086C98.2575 114.051 98.5726 113.822 98.7175 113.488L104.083 101.116Z" fill="#4E4E4E"/>
<path d="M150.083 117.116C150.431 116.313 151.569 116.313 151.917 117.116L157.282 129.488C157.427 129.822 157.743 130.051 158.105 130.086L171.53 131.365C172.401 131.448 172.753 132.531 172.097 133.11L161.988 142.036C161.715 142.277 161.594 142.647 161.674 143.003L164.605 156.165C164.796 157.02 163.875 157.689 163.121 157.244L151.508 150.388C151.195 150.203 150.805 150.203 150.492 150.388L138.879 157.244C138.125 157.689 137.204 157.02 137.395 156.165L140.326 143.003C140.406 142.647 140.285 142.277 140.012 142.036L129.903 133.11C129.247 132.531 129.599 131.448 130.47 131.365L143.895 130.086C144.257 130.051 144.573 129.822 144.718 129.488L150.083 117.116Z" fill="#4E4E4E"/>
</svg>
