<svg width="79" height="51" viewBox="0 0 79 51" fill="none" xmlns="http://www.w3.org/2000/svg">
<path d="M29.5407 0.803704C15.3807 3.08834 -5.8774 14.3926 1.5204 32.5171C2.48388 34.8776 3.95738 36.9993 5.66498 38.8538C16.0578 50.1406 34.1058 52.3964 48.3803 50.2956C62.7279 48.184 85.0988 37.3168 77.4473 18.5705C76.4838 16.21 75.0103 14.0883 73.3027 12.2339C62.8371 0.867998 43.9333 -1.51843 29.5407 0.803704Z" fill="white"/>
<path d="M30.2243 2.74915C16.6953 4.87872 -3.61548 15.4157 3.45264 32.3101C4.37319 34.5104 5.78102 36.4881 7.41252 38.2167C17.3422 48.7374 34.5859 50.8401 48.2243 48.8819C61.9325 46.9136 83.3064 36.784 75.9958 19.3101C75.0753 17.1098 73.6674 15.1321 72.0359 13.4035C62.0367 2.80908 43.9755 0.584625 30.2243 2.74915Z" fill="#203A8B"/>
<path d="M24 19.9037C21.6228 19.3317 19.442 19.0132 17 18.9037C19.2494 22.8549 22.7864 23.7545 27 24.9037V26.9037C24.6228 27.4757 22.442 26.7942 20 26.9037C20.6479 29.6129 19.0767 33.4108 21 35.9037C24.4155 40.3306 29.9623 33.0011 35.0008 32.9083C39.1088 32.8327 43.8834 32.3055 47.9105 33.2023C51.569 34.017 54.9853 38.6514 58 35.9037C60.327 33.7827 58.3521 29.6129 59 26.9037C56.558 26.7942 54.3772 27.4757 52 26.9037V24.9037L62 21.9037V18.9037C59.558 19.0132 57.3772 19.3317 55 19.9037C50.876 9.38456 28.1914 9.34636 24 19.9037Z" fill="#CFE8FC"/>
<path d="M26 20.6499H53C48.2103 12.9885 30.7897 12.9885 26 20.6499Z" fill="#203A8B"/>
<path d="M33 23.9038C35.2463 29.4919 43.7537 29.4919 46 23.9038H33Z" fill="#203A8B"/>
</svg>
