<svg width="180" height="177" viewBox="0 0 180 177" fill="none" xmlns="http://www.w3.org/2000/svg">
<path fill-rule="evenodd" clip-rule="evenodd" d="M90 176.571C139.706 176.571 180 137.045 180 88.2857C180 39.5269 139.706 0 90 0C40.2944 0 0 39.5269 0 88.2857C0 137.045 40.2944 176.571 90 176.571ZM90 161.857C131.421 161.857 165 128.918 165 88.2856C165 47.6532 131.421 14.7141 90 14.7141C48.5786 14.7141 15 47.6532 15 88.2856C15 128.918 48.5786 161.857 90 161.857Z" fill="#4E4E4E"/>
<path d="M122 136.8C119.095 136.8 116.365 136.249 113.81 135.146C111.255 134.044 109.032 132.547 107.142 130.657C105.252 128.767 103.756 126.545 102.654 123.99C101.551 121.435 101 118.705 101 115.8C101 112.895 101.551 110.165 102.654 107.61C103.756 105.055 105.252 102.832 107.142 100.942C109.032 99.0523 111.255 97.5561 113.81 96.4536C116.365 95.3511 119.095 94.7998 122 94.7998C124.275 94.7998 126.427 95.1323 128.457 95.7973C130.487 96.4623 132.36 97.3898 134.075 98.5798L131.03 101.677C129.7 100.837 128.282 100.181 126.777 99.7086C125.272 99.2361 123.68 98.9998 122 98.9998C117.345 98.9998 113.381 100.636 110.109 103.909C106.836 107.181 105.2 111.145 105.2 115.8C105.2 120.455 106.836 124.419 110.109 127.691C113.381 130.964 117.345 132.6 122 132.6C126.655 132.6 130.619 130.964 133.891 127.691C137.164 124.419 138.8 120.455 138.8 115.8C138.8 115.17 138.765 114.54 138.695 113.91C138.625 113.28 138.52 112.667 138.38 112.072L141.792 108.66C142.177 109.78 142.475 110.935 142.685 112.125C142.895 113.315 143 114.54 143 115.8C143 118.705 142.449 121.435 141.346 123.99C140.244 126.545 138.747 128.767 136.857 130.657C134.967 132.547 132.745 134.044 130.19 135.146C127.635 136.249 124.905 136.8 122 136.8ZM119.06 125.46L110.135 116.535L113.075 113.595L119.06 119.58L140.06 98.5273L143 101.467L119.06 125.46Z" fill="#4E4E4E"/>
<path fill-rule="evenodd" clip-rule="evenodd" d="M70.025 94.275L75.275 103.2L95.75 90.6V62.25H85.25V85.35L70.025 94.275ZM90.5 141C83.2375 141 76.4125 139.622 70.025 136.866C63.6375 134.109 58.0813 130.369 53.3563 125.644C48.6313 120.919 44.8906 115.363 42.1344 108.975C39.3781 102.588 38 95.7625 38 88.5C38 81.2375 39.3781 74.4125 42.1344 68.025C44.8906 61.6375 48.6313 56.0813 53.3563 51.3563C58.0813 46.6313 63.6375 42.8906 70.025 40.1344C76.4125 37.3781 83.2375 36 90.5 36C97.7625 36 104.588 37.3781 110.975 40.1344C117.363 42.8906 122.919 46.6313 127.644 51.3563C132.369 56.0813 136.109 61.6375 138.866 68.025C141.35 73.7813 142.714 79.8929 142.96 86.3598L132.445 86.1848C131.934 75.5428 127.861 66.4051 120.228 58.7719C112.047 50.5906 102.138 46.5 90.5 46.5C78.8625 46.5 68.9531 50.5906 60.7719 58.7719C52.5906 66.9531 48.5 76.8625 48.5 88.5C48.5 100.138 52.5906 110.047 60.7719 118.228C68.9531 126.409 78.8625 130.5 90.5 130.5C91.3424 130.5 92.1757 130.479 93 130.436V140.945C92.1725 140.982 91.3392 141 90.5 141Z" fill="#4E4E4E"/>
</svg>
