<svg width="180" height="177" viewBox="0 0 180 177" fill="none" xmlns="http://www.w3.org/2000/svg">
<path fill-rule="evenodd" clip-rule="evenodd" d="M90 176.571C139.706 176.571 180 137.045 180 88.2857C180 39.5269 139.706 0 90 0C40.2944 0 0 39.5269 0 88.2857C0 137.045 40.2944 176.571 90 176.571ZM89.9999 161.857C131.421 161.857 165 128.918 165 88.2856C165 47.6533 131.421 14.7142 89.9999 14.7142C48.5785 14.7142 14.9999 47.6533 14.9999 88.2856C14.9999 128.918 48.5785 161.857 89.9999 161.857Z" fill="#4E4E4E"/>
<path d="M89.6667 88.8333C97.5348 89.0527 103.399 85.5667 108 78.8333C110.892 74.6016 112 72.3333 112 66.3333C112 60.3333 110.518 56.927 107.167 52.3333C102.672 46.1723 97.4741 43.6996 89.6667 43.6665C82.2148 43.6349 76.6385 45.8342 72 51.6665C68.3863 56.2102 67.4452 60.532 67.6665 66.3333C67.8963 72.3568 68.2931 74.5675 71 78.8333C75.4309 85.8161 82.7657 88.6409 89.6667 88.8333ZM89.6667 121.667C78.0389 111.772 69.3542 102.582 63.6125 94.0957C57.8708 85.6096 55 77.7554 55 70.5332C55 59.6998 58.4847 51.0693 65.4542 44.6415C72.4236 38.2137 80.4944 34.9998 89.6667 34.9998C98.8389 34.9998 106.91 38.2137 113.879 44.6415C120.849 51.0693 124.333 59.6998 124.333 70.5332C124.333 77.7554 121.462 85.6096 115.721 94.0957C109.979 102.582 101.294 111.772 89.6667 121.667Z" fill="#4E4E4E"/>
<path d="M110.419 109.892C104.919 108.391 103.919 114.892 103.919 114.892C109.086 115.392 120.419 117.892 124.419 123.892C128.419 129.892 103.43 135.2 88.9193 134.892C75.338 134.603 54.3193 130.619 55.9194 123.892C57.5194 117.164 61.9194 116.392 73.9194 114.892C73.9194 114.892 77 109.892 67.5 109.892C58.5 112.667 60.619 112.492 53.419 118.892C44.419 126.892 55.9193 133.892 56.9193 134.892C57.9193 135.892 76.2055 140.756 88.9193 140.892C102.402 141.036 112.419 139.892 122.919 134.892C131.319 130.892 130.086 122.558 128.419 118.892C128.419 118.892 119.102 112.26 110.419 109.892Z" fill="#4E4E4E"/>
</svg>
